<?xml version="1.0" encoding="UTF-8" standalone="no"?>
<!DOCTYPE svg PUBLIC "-//W3C//DTD SVG 1.1//EN" "http://www.w3.org/Graphics/SVG/1.1/DTD/svg11.dtd">
<svg version="1.1" xmlns="http://www.w3.org/2000/svg" xmlns:xlink="http://www.w3.org/1999/xlink" preserveAspectRatio="xMidYMid meet" viewBox="109.00124448973081 108.9976110639729 254.00322804645003 253.99868852459025" width="250" height="250"><defs><path d="M360 335L359.97 336.32L359.86 337.63L359.69 338.92L359.46 340.19L359.16 341.43L358.8 342.65L358.39 343.85L357.91 345.01L357.38 346.15L356.79 347.25L356.15 348.32L355.46 349.35L354.73 350.35L353.94 351.31L353.11 352.23L352.23 353.1L351.31 353.93L350.36 354.72L349.36 355.46L348.32 356.15L347.25 356.79L346.15 357.37L345.02 357.91L343.85 358.38L342.66 358.8L341.44 359.16L340.19 359.46L338.93 359.69L337.64 359.86L336.33 359.96L335 360L335 360L135 360L133.67 359.96L132.37 359.86L131.08 359.69L129.81 359.46L128.56 359.16L127.34 358.8L126.15 358.38L124.99 357.91L123.85 357.37L122.75 356.79L121.68 356.15L120.64 355.46L119.65 354.72L118.69 353.93L117.77 353.1L116.89 352.23L116.06 351.31L115.28 350.35L114.54 349.35L113.85 348.32L113.21 347.25L112.62 346.15L112.09 345.01L111.62 343.85L111.2 342.65L110.84 341.43L110.54 340.19L110.31 338.92L110.14 337.63L110.04 336.32L110 335L110 334.87L110 135.12L110 135L110.04 133.67L110.14 132.36L110.31 131.07L110.54 129.8L110.84 128.56L111.2 127.34L111.62 126.15L112.09 124.98L112.62 123.85L113.21 122.74L113.85 121.67L114.54 120.64L115.28 119.64L116.06 118.68L116.89 117.77L117.77 116.89L118.69 116.06L119.65 115.27L120.64 114.53L121.68 113.84L122.75 113.21L123.85 112.62L124.99 112.09L126.15 111.61L127.34 111.19L128.56 110.84L129.81 110.54L131.08 110.3L132.37 110.14L133.67 110.03L135 110L135 110L335 110L335 110L336.33 110.03L337.64 110.14L338.93 110.3L340.19 110.54L341.44 110.84L342.66 111.19L343.85 111.61L345.02 112.09L346.15 112.62L347.25 113.21L348.32 113.84L349.36 114.53L350.36 115.27L351.31 116.06L352.23 116.89L353.11 117.77L353.94 118.68L354.73 119.64L355.46 120.64L356.15 121.67L356.79 122.74L357.38 123.85L357.91 124.98L358.39 126.15L358.8 127.34L359.16 128.56L359.46 129.8L359.69 131.07L359.86 132.36L359.97 133.67L360 135L360 135L360 335L360 335Z" id="cKT7Rka0E"></path><path d="M160.44 180.04L160.91 180.1L161.37 180.17L161.83 180.26L162.28 180.38L162.72 180.51L163.15 180.66L163.58 180.83L163.99 181.01L164.4 181.22L164.79 181.44L165.17 181.67L165.55 181.92L165.91 182.19L166.26 182.47L166.6 182.77L166.92 183.08L123.08 226.92L122.77 226.6L122.47 226.26L122.19 225.91L121.92 225.55L121.67 225.18L121.44 224.79L121.22 224.4L121.01 223.99L120.83 223.58L120.66 223.15L120.51 222.72L120.38 222.28L120.26 221.83L120.17 221.37L120.1 220.91L120.04 220.44L120.01 219.96L120 219.48L120 190.52L120.01 190.04L120.04 189.56L120.1 189.09L120.17 188.63L120.26 188.17L120.38 187.72L120.51 187.28L120.66 186.85L120.83 186.42L121.01 186.01L121.22 185.6L121.44 185.21L121.67 184.82L121.92 184.45L122.19 184.09L122.47 183.74L122.77 183.4L123.08 183.08L123.4 182.77L123.74 182.47L124.09 182.19L124.45 181.92L124.82 181.67L125.21 181.44L125.6 181.22L126.01 181.01L126.42 180.83L126.85 180.66L127.28 180.51L127.72 180.38L128.17 180.26L128.63 180.17L129.09 180.1L129.56 180.04L130.04 180.01L130.52 180L159.48 180L159.96 180.01L160.44 180.04Z" id="b36j0jUrh"></path><path d="M166.53 244.45L166.79 244.83L167.02 245.21L167.24 245.6L167.45 246.01L167.63 246.42L167.8 246.85L167.95 247.28L168.08 247.72L168.2 248.17L168.29 248.63L168.36 249.09L168.42 249.56L168.45 250.04L168.46 250.52L168.46 279.48L168.45 279.97L168.42 280.44L168.36 280.91L168.29 281.37L168.2 281.83L168.08 282.28L167.95 282.72L167.8 283.15L167.63 283.58L167.45 283.99L167.24 284.4L167.02 284.79L166.79 285.18L166.53 285.55L166.27 285.91L165.99 286.26L165.69 286.6L165.38 286.92L165.05 287.23L164.72 287.53L164.37 287.81L164.01 288.08L163.63 288.33L163.25 288.56L162.86 288.78L162.45 288.99L162.04 289.17L161.61 289.34L161.18 289.49L160.74 289.63L160.29 289.74L159.83 289.83L159.37 289.9L158.9 289.96L158.42 289.99L157.94 290L128.98 290L128.49 289.99L128.02 289.96L127.55 289.9L127.09 289.83L126.63 289.74L126.18 289.63L125.74 289.49L125.31 289.34L124.88 289.17L124.47 288.99L124.06 288.78L123.67 288.56L123.28 288.33L122.91 288.08L122.55 287.81L122.35 287.65L166.11 243.89L166.27 244.09L166.53 244.45Z" id="a1qUp44qu5"></path><path d="M160.44 300.04L160.91 300.1L161.37 300.17L161.83 300.26L162.28 300.38L162.72 300.51L163.15 300.66L163.58 300.83L163.99 301.01L164.4 301.22L164.79 301.44L165.17 301.67L165.55 301.92L165.91 302.19L166.26 302.47L166.6 302.77L166.92 303.08L123.08 346.92L122.77 346.6L122.47 346.26L122.19 345.91L121.92 345.55L121.67 345.18L121.44 344.79L121.22 344.4L121.01 343.99L120.83 343.58L120.66 343.15L120.51 342.72L120.38 342.28L120.26 341.83L120.17 341.37L120.1 340.91L120.04 340.44L120.01 339.96L120 339.48L120 310.52L120.01 310.04L120.04 309.56L120.1 309.09L120.17 308.63L120.26 308.17L120.38 307.72L120.51 307.28L120.66 306.85L120.83 306.42L121.01 306.01L121.22 305.6L121.44 305.21L121.67 304.82L121.92 304.45L122.19 304.09L122.47 303.74L122.77 303.4L123.08 303.08L123.4 302.77L123.74 302.47L124.09 302.19L124.45 301.92L124.82 301.67L125.21 301.44L125.6 301.22L126.01 301.01L126.42 300.83L126.85 300.66L127.28 300.51L127.72 300.38L128.17 300.26L128.63 300.17L129.09 300.1L129.56 300.04L130.04 300.01L130.52 300L159.48 300L159.96 300.01L160.44 300.04Z" id="azTbyA8l8"></path><path d="M220.44 240.04L220.91 240.1L221.37 240.17L221.83 240.26L222.28 240.38L222.72 240.51L223.15 240.66L223.58 240.83L223.99 241.01L224.4 241.22L224.79 241.44L225.18 241.67L225.55 241.93L225.91 242.19L226.26 242.47L226.6 242.77L226.92 243.08L227.23 243.41L227.53 243.74L227.81 244.09L228.08 244.45L228.33 244.83L228.56 245.21L228.78 245.6L228.99 246.01L229.17 246.42L229.34 246.85L229.49 247.28L229.62 247.72L229.74 248.17L229.83 248.63L229.9 249.09L229.96 249.56L229.99 250.04L230 250.52L230 279.48L229.99 279.97L229.96 280.44L229.9 280.91L229.83 281.37L229.74 281.83L229.62 282.28L229.49 282.72L229.34 283.15L229.17 283.58L228.99 283.99L228.78 284.4L228.56 284.79L228.33 285.18L228.08 285.55L227.81 285.91L227.53 286.26L227.23 286.6L226.92 286.92L183.08 243.08L183.08 243.08L183.4 242.77L183.74 242.47L184.09 242.19L184.45 241.93L184.83 241.67L185.21 241.44L185.6 241.22L186.01 241.01L186.42 240.83L186.85 240.66L187.28 240.51L187.72 240.38L188.17 240.26L188.63 240.17L189.09 240.1L189.56 240.04L190.04 240.01L190.52 240L219.48 240L219.96 240.01L220.44 240.04Z" id="a3oMzlOHyl"></path><path d="M286.92 286.92L286.59 287.23L286.26 287.53L285.91 287.81L285.55 288.08L285.17 288.33L284.79 288.56L284.4 288.78L283.99 288.99L283.58 289.17L283.15 289.34L282.72 289.49L282.28 289.63L281.83 289.74L281.37 289.83L280.91 289.9L280.44 289.96L279.96 289.99L279.48 290L250.52 290L250.04 289.99L249.56 289.96L249.09 289.9L248.63 289.83L248.17 289.74L247.72 289.63L247.28 289.49L246.85 289.34L246.42 289.17L246.01 288.99L245.6 288.78L245.21 288.56L244.82 288.33L244.45 288.08L244.09 287.81L243.74 287.53L243.4 287.23L243.08 286.92L242.77 286.6L242.47 286.26L242.19 285.91L241.92 285.55L241.67 285.18L241.44 284.79L241.22 284.4L241.01 283.99L240.83 283.58L240.66 283.15L240.51 282.72L240.37 282.28L240.26 281.83L240.17 281.37L240.1 280.91L240.04 280.44L240.01 279.97L240 279.5L240 250.5L240.01 250.04L240.04 249.56L240.1 249.09L240.17 248.63L240.26 248.17L240.37 247.72L240.51 247.28L240.66 246.85L240.83 246.42L241.01 246.01L241.22 245.6L241.44 245.21L241.67 244.83L241.92 244.45L242.19 244.09L242.47 243.74L242.77 243.41L243.08 243.08L286.92 286.92L286.92 286.92Z" id="a12e7xRgX3"></path><path d="M280.44 180.04L280.91 180.1L281.37 180.17L281.83 180.26L282.28 180.38L282.72 180.51L283.15 180.66L283.58 180.83L283.99 181.01L284.4 181.22L284.79 181.44L285.17 181.67L285.55 181.92L285.91 182.19L286.26 182.47L286.6 182.77L286.92 183.08L243.08 226.92L242.77 226.6L242.47 226.26L242.19 225.91L241.92 225.55L241.67 225.18L241.44 224.79L241.22 224.4L241.01 223.99L240.83 223.58L240.66 223.15L240.51 222.72L240.38 222.28L240.26 221.83L240.17 221.37L240.1 220.91L240.04 220.44L240.01 219.96L240 219.48L240 190.52L240.01 190.04L240.04 189.56L240.1 189.09L240.17 188.63L240.26 188.17L240.38 187.72L240.51 187.28L240.66 186.85L240.83 186.42L241.01 186.01L241.22 185.6L241.44 185.21L241.67 184.82L241.92 184.45L242.19 184.09L242.47 183.74L242.77 183.4L243.08 183.08L243.4 182.77L243.74 182.47L244.09 182.19L244.45 181.92L244.82 181.67L245.21 181.44L245.6 181.22L246.01 181.01L246.42 180.83L246.85 180.66L247.28 180.51L247.72 180.38L248.17 180.26L248.63 180.17L249.09 180.1L249.56 180.04L250.04 180.01L250.52 180L279.48 180L279.96 180.01L280.44 180.04Z" id="by5LVNw2b"></path><path d="M282.41 299.12L282.88 299.18L283.34 299.25L283.8 299.34L284.25 299.46L284.69 299.59L285.12 299.74L285.54 299.91L285.96 300.09L286.36 300.3L286.76 300.52L287.14 300.75L287.52 301.01L287.88 301.27L288.23 301.56L288.56 301.85L288.89 302.16L289.2 302.49L289.49 302.82L289.78 303.17L290 303.48L290 344.69L289.78 344.99L289.49 345.34L289.2 345.68L288.89 346L288.56 346.31L288.23 346.61L287.88 346.89L287.84 346.92L244.13 303.21L244.16 303.17L244.44 302.82L244.74 302.49L245.05 302.16L245.37 301.85L245.71 301.56L246.06 301.27L246.42 301.01L246.79 300.75L247.18 300.52L247.57 300.3L247.98 300.09L248.39 299.91L248.81 299.74L249.25 299.59L249.69 299.46L250.14 299.34L250.59 299.25L251.06 299.18L251.53 299.12L252 299.09L252.48 299.08L281.45 299.08L281.93 299.09L282.41 299.12Z" id="eDkTiUY6E"></path><path d="M220.44 120.04L220.91 120.1L221.37 120.17L221.83 120.26L222.28 120.38L222.72 120.51L223.15 120.66L223.58 120.83L223.99 121.01L224.4 121.22L224.79 121.44L225.18 121.67L225.55 121.92L225.91 122.19L226.26 122.47L226.6 122.77L226.92 123.08L227.23 123.4L227.53 123.74L227.81 124.09L228.08 124.45L228.33 124.82L228.56 125.21L228.78 125.6L228.99 126.01L229.17 126.42L229.34 126.85L229.49 127.28L229.62 127.72L229.74 128.17L229.83 128.63L229.9 129.09L229.96 129.56L229.99 130.04L230 130.52L230 159.48L229.99 159.96L229.96 160.44L229.9 160.91L229.83 161.37L229.74 161.83L229.62 162.28L229.49 162.72L229.34 163.15L229.17 163.58L228.99 163.99L228.78 164.4L228.56 164.79L228.33 165.18L228.08 165.55L227.81 165.91L227.53 166.26L227.23 166.6L226.92 166.92L226.6 167.23L226.26 167.53L225.91 167.81L225.55 168.08L225.18 168.33L224.79 168.56L224.4 168.78L223.99 168.99L223.58 169.17L223.15 169.34L222.72 169.49L222.28 169.62L221.83 169.74L221.37 169.83L220.91 169.9L220.44 169.96L219.96 169.99L219.48 170L190.52 170L190.04 169.99L189.56 169.96L189.09 169.9L188.63 169.83L188.17 169.74L187.72 169.62L187.28 169.49L186.85 169.34L186.42 169.17L186.01 168.99L185.6 168.78L185.21 168.56L184.83 168.33L184.45 168.08L184.09 167.81L183.74 167.53L183.4 167.23L183.08 166.92L182.77 166.6L182.47 166.26L182.19 165.91L181.92 165.55L181.67 165.18L181.44 164.79L181.22 164.4L181.01 163.99L180.83 163.58L180.66 163.15L180.51 162.72L180.38 162.28L180.26 161.83L180.17 161.37L180.1 160.91L180.04 160.44L180.01 159.96L180 159.48L180 130.52L180.01 130.04L180.04 129.56L180.1 129.09L180.17 128.63L180.26 128.17L180.38 127.72L180.51 127.28L180.66 126.85L180.83 126.42L181.01 126.01L181.22 125.6L181.44 125.21L181.67 124.82L181.92 124.45L182.19 124.09L182.47 123.74L182.77 123.4L183.08 123.08L183.4 122.77L183.74 122.47L184.09 122.19L184.45 121.92L184.83 121.67L185.21 121.44L185.6 121.22L186.01 121.01L186.42 120.83L186.85 120.66L187.28 120.51L187.72 120.38L188.17 120.26L188.63 120.17L189.09 120.1L189.56 120.04L190.04 120.01L190.52 120L219.48 120L219.96 120.01L220.44 120.04Z" id="buR8ijWAb"></path><path d="M340.44 240.04L340.91 240.1L341.37 240.17L341.83 240.26L342.28 240.38L342.72 240.51L343.15 240.66L343.58 240.83L343.99 241.01L344.4 241.22L344.79 241.44L345.18 241.67L345.55 241.93L345.91 242.19L346.26 242.47L346.6 242.77L346.92 243.08L347.23 243.41L347.53 243.74L347.81 244.09L348.08 244.45L348.33 244.83L348.56 245.21L348.78 245.6L348.99 246.01L349.17 246.42L349.34 246.85L349.49 247.28L349.62 247.72L349.74 248.17L349.83 248.63L349.9 249.09L349.96 249.56L349.99 250.04L350 250.52L350 279.48L349.99 279.97L349.96 280.44L349.9 280.91L349.83 281.37L349.74 281.83L349.62 282.28L349.49 282.72L349.34 283.15L349.17 283.58L348.99 283.99L348.78 284.4L348.56 284.79L348.33 285.18L348.08 285.55L347.81 285.91L347.53 286.26L347.23 286.6L346.92 286.92L346.6 287.23L346.26 287.53L345.91 287.81L345.55 288.08L345.18 288.33L344.79 288.56L344.4 288.78L343.99 288.99L343.58 289.17L343.15 289.34L342.72 289.49L342.28 289.63L341.83 289.74L341.37 289.83L340.91 289.9L340.44 289.96L339.96 289.99L339.48 290L310.52 290L310.04 289.99L309.56 289.96L309.09 289.9L308.63 289.83L308.17 289.74L307.72 289.63L307.28 289.49L306.85 289.34L306.42 289.17L306.01 288.99L305.6 288.78L305.21 288.56L304.83 288.33L304.45 288.08L304.09 287.81L303.74 287.53L303.4 287.23L303.08 286.92L302.77 286.6L302.47 286.26L302.19 285.91L301.92 285.55L301.67 285.18L301.44 284.79L301.22 284.4L301.01 283.99L300.83 283.58L300.66 283.15L300.51 282.72L300.38 282.28L300.26 281.83L300.17 281.37L300.1 280.91L300.04 280.44L300.01 279.97L300 279.48L300 250.52L300.01 250.04L300.04 249.56L300.1 249.09L300.17 248.63L300.26 248.17L300.38 247.72L300.51 247.28L300.66 246.85L300.83 246.42L301.01 246.01L301.22 245.6L301.44 245.21L301.67 244.83L301.92 244.45L302.19 244.09L302.47 243.74L302.77 243.41L303.08 243.08L303.4 242.77L303.74 242.47L304.09 242.19L304.45 241.93L304.83 241.67L305.21 241.44L305.6 241.22L306.01 241.01L306.42 240.83L306.85 240.66L307.28 240.51L307.72 240.38L308.17 240.26L308.63 240.17L309.09 240.1L309.56 240.04L310.04 240.01L310.52 240L339.48 240L339.96 240.01L340.44 240.04Z" id="aHTdDex7O"></path><path d="M220.91 178.56L221.37 178.63L221.83 178.72L222.28 178.84L222.72 178.97L223.15 179.12L223.58 179.29L223.99 179.47L224.4 179.68L224.79 179.9L225.18 180.13L225.55 180.38L225.91 180.65L226.26 180.93L226.6 181.23L226.92 181.54L227.23 181.86L227.53 182.2L227.81 182.55L228.08 182.91L228.33 183.28L228.56 183.67L228.78 184.06L228.99 184.47L229.17 184.88L229.34 185.31L229.49 185.74L229.62 186.18L229.74 186.63L229.83 187.09L229.9 187.55L229.96 188.02L229.99 188.5L230 188.98L230 217.94L229.99 218.42L229.96 218.9L229.9 219.37L229.83 219.83L229.74 220.29L229.62 220.74L229.49 221.18L229.34 221.61L229.17 222.04L228.99 222.45L228.78 222.86L228.56 223.25L228.33 223.63L228.08 224.01L227.81 224.37L227.53 224.72L227.23 225.06L226.92 225.38L226.6 225.69L226.26 225.99L225.91 226.27L225.55 226.54L225.18 226.79L224.79 227.02L224.4 227.24L223.99 227.45L223.58 227.63L223.15 227.8L222.72 227.95L222.28 228.08L221.83 228.2L221.37 228.29L220.91 228.36L220.44 228.42L219.96 228.45L219.48 228.46L190.52 228.46L190.04 228.45L189.56 228.42L189.09 228.36L188.63 228.29L188.17 228.2L187.72 228.08L187.28 227.95L186.85 227.8L186.42 227.63L186.01 227.45L185.6 227.24L185.21 227.02L184.83 226.79L184.45 226.54L184.09 226.27L183.74 225.99L183.4 225.69L183.08 225.38L182.77 225.06L182.47 224.72L182.19 224.37L181.92 224.01L181.67 223.63L181.44 223.25L181.22 222.86L181.01 222.45L180.83 222.04L180.66 221.61L180.51 221.18L180.38 220.74L180.26 220.29L180.17 219.83L180.1 219.37L180.04 218.9L180.01 218.42L180 217.94L180 188.98L180.01 188.5L180.04 188.02L180.1 187.55L180.17 187.09L180.26 186.63L180.38 186.18L180.51 185.74L180.66 185.31L180.83 184.88L181.01 184.47L181.22 184.06L181.44 183.67L181.67 183.28L181.92 182.91L182.19 182.55L182.47 182.2L182.77 181.86L183.08 181.54L183.4 181.23L183.74 180.93L184.09 180.65L184.45 180.38L184.83 180.13L185.21 179.9L185.6 179.68L186.01 179.47L186.42 179.29L186.85 179.12L187.28 178.97L187.72 178.84L188.17 178.72L188.63 178.63L189.09 178.56L189.56 178.5L190.04 178.47L190.52 178.46L219.48 178.46L219.96 178.47L220.44 178.5L220.44 178.5L220.91 178.56Z" id="a1iXH6Yj9l"></path></defs><g><g><use xlink:href="#cKT7Rka0E" opacity="1" fill="#2f6e25" fill-opacity="1"></use></g><g><g><use xlink:href="#b36j0jUrh" opacity="1" fill="#ffffff" fill-opacity="1"></use></g><g><use xlink:href="#a1qUp44qu5" opacity="1" fill="#ffffff" fill-opacity="1"></use></g><g><use xlink:href="#azTbyA8l8" opacity="1" fill="#ffffff" fill-opacity="1"></use></g><g><use xlink:href="#a3oMzlOHyl" opacity="1" fill="#ffffff" fill-opacity="1"></use></g><g><use xlink:href="#a12e7xRgX3" opacity="1" fill="#ffffff" fill-opacity="1"></use></g><g><use xlink:href="#by5LVNw2b" opacity="1" fill="#ffffff" fill-opacity="1"></use></g><g><use xlink:href="#eDkTiUY6E" opacity="1" fill="#ffffff" fill-opacity="1"></use></g><g><use xlink:href="#buR8ijWAb" opacity="1" fill="#ffffff" fill-opacity="1"></use></g><g><use xlink:href="#aHTdDex7O" opacity="1" fill="#ffffff" fill-opacity="1"></use></g><g><use xlink:href="#a1iXH6Yj9l" opacity="1" fill="#ffffff" fill-opacity="1"></use></g></g></g></svg>