<?xml version="1.0" encoding="UTF-8" standalone="no"?>
<!DOCTYPE svg PUBLIC "-//W3C//DTD SVG 1.1//EN" "http://www.w3.org/Graphics/SVG/1.1/DTD/svg11.dtd">
<svg version="1.1" xmlns="http://www.w3.org/2000/svg" xmlns:xlink="http://www.w3.org/1999/xlink" preserveAspectRatio="xMidYMid meet" viewBox="304.32348291158235 178.38365128016721 217.00000000000034 217.00000000000034" width="211.5" height="211.5"><defs><path d="M421.24 181.23L425.5 181.67L429.72 182.27L433.87 183.03L437.97 183.96L442.01 185.04L445.98 186.28L449.89 187.67L453.72 189.2L457.48 190.88L461.15 192.69L464.75 194.65L468.26 196.74L471.68 198.95L475.01 201.3L478.24 203.77L481.38 206.35L484.41 209.06L487.34 211.87L490.15 214.8L492.85 217.83L495.44 220.96L497.91 224.2L500.25 227.53L502.47 230.95L504.56 234.46L506.51 238.05L508.33 241.73L510.01 245.49L511.54 249.32L512.93 253.22L514.17 257.2L515.25 261.23L516.17 265.33L516.94 269.49L517.54 273.7L517.97 277.97L518.24 282.28L518.32 286.63L518.24 290.99L517.97 295.3L517.54 299.57L516.94 303.78L516.17 307.93L515.25 312.03L514.17 316.07L512.93 320.04L511.54 323.95L510.01 327.78L508.33 331.54L506.51 335.21L504.56 338.81L502.47 342.32L500.25 345.74L497.91 349.07L495.44 352.3L492.85 355.44L490.15 358.47L487.34 361.4L484.41 364.21L481.38 366.91L478.24 369.5L475.01 371.97L471.68 374.31L468.26 376.53L464.75 378.62L461.15 380.57L457.48 382.39L453.72 384.07L449.89 385.6L445.98 386.99L442.01 388.23L437.97 389.31L433.87 390.23L429.72 391L425.5 391.6L421.24 392.03L416.93 392.3L412.57 392.38L408.22 392.3L403.91 392.03L399.64 391.6L395.43 391L391.27 390.23L387.17 389.31L383.14 388.23L379.16 386.99L375.26 385.6L371.43 384.07L367.67 382.39L363.99 380.57L360.4 378.62L356.89 376.53L353.46 374.31L350.14 371.97L346.9 369.5L343.77 366.91L340.74 364.21L337.81 361.4L335 358.47L332.29 355.44L329.71 352.3L327.24 349.07L324.89 345.74L322.68 342.32L320.59 338.81L318.63 335.21L316.82 331.54L315.14 327.78L313.61 323.95L312.22 320.04L310.98 316.07L309.9 312.03L308.97 307.93L308.21 303.78L307.61 299.57L307.17 295.3L306.91 290.99L306.82 286.63L306.91 282.28L307.17 277.97L307.61 273.7L308.21 269.49L308.97 265.33L309.9 261.23L310.98 257.2L312.22 253.22L313.61 249.32L315.14 245.49L316.82 241.73L318.63 238.05L320.59 234.46L322.68 230.95L324.89 227.53L327.24 224.2L329.71 220.96L332.29 217.83L335 214.8L337.81 211.87L340.74 209.06L343.77 206.35L346.9 203.77L350.14 201.3L353.46 198.95L356.89 196.74L360.4 194.65L363.99 192.69L367.67 190.88L371.43 189.2L375.26 187.67L379.16 186.28L383.14 185.04L387.17 183.96L391.27 183.03L395.43 182.27L399.64 181.67L403.91 181.23L408.22 180.97L412.57 180.88L416.93 180.97L421.24 181.23ZM339.32 359.88L485.82 359.88L485.82 213.38L339.32 213.38L339.32 359.88Z" id="a1Fl81Ugib"></path><path d="M355.07 235.52L380.63 235.52L380.63 312.19L355.07 312.19L355.07 235.52Z" id="btrOvVQ6E"></path><path d="M379.35 235.52L412.57 235.52L412.57 254.69L379.35 254.69L379.35 235.52Z" id="daf7ows9Q"></path><path d="M379.35 264.91L399.8 264.91L399.8 277.69L379.35 277.69L379.35 264.91Z" id="a2qKy0dQQu"></path><path d="M412.58 261.08L438.13 261.08L438.13 337.74L412.58 337.74L412.58 261.08Z" id="eVqJgEyoB"></path><path d="M436.85 261.08L463.69 261.08L463.69 280.24L436.85 280.24L436.85 261.08Z" id="a3al4JjZIR"></path><path d="M436.85 293.02L458.57 293.02L458.57 305.8L436.85 305.8L436.85 293.02Z" id="b3TsQB6yBl"></path><path d="M436.85 318.58L470.07 318.58L470.07 337.74L436.85 337.74L436.85 318.58Z" id="fk1M0GxGf"></path><path d="M457.3 293.02L470.07 293.02L470.07 320.37L457.3 320.37L457.3 293.02Z" id="a19jdvGO2U"></path><path d="M453.46 278.97L463.69 278.97L463.69 294.3L453.46 294.3L453.46 278.97Z" id="b1GwKHsuBy"></path></defs><g><g><use xlink:href="#a1Fl81Ugib" opacity="1" fill="#73d065" fill-opacity="1"></use></g><g><use xlink:href="#btrOvVQ6E" opacity="1" fill="#385634" fill-opacity="1"></use></g><g><use xlink:href="#daf7ows9Q" opacity="1" fill="#385634" fill-opacity="1"></use></g><g><use xlink:href="#a2qKy0dQQu" opacity="1" fill="#385634" fill-opacity="1"></use></g><g><use xlink:href="#eVqJgEyoB" opacity="1" fill="#385634" fill-opacity="1"></use></g><g><use xlink:href="#a3al4JjZIR" opacity="1" fill="#385634" fill-opacity="1"></use></g><g><use xlink:href="#b3TsQB6yBl" opacity="1" fill="#385634" fill-opacity="1"></use></g><g><use xlink:href="#fk1M0GxGf" opacity="1" fill="#385634" fill-opacity="1"></use></g><g><use xlink:href="#a19jdvGO2U" opacity="1" fill="#385634" fill-opacity="1"></use></g><g><use xlink:href="#b1GwKHsuBy" opacity="1" fill="#385634" fill-opacity="1"></use></g></g></svg>