<?xml version="1.0" encoding="UTF-8" standalone="no"?>
<!DOCTYPE svg PUBLIC "-//W3C//DTD SVG 1.1//EN" "http://www.w3.org/Graphics/SVG/1.1/DTD/svg11.dtd">
<svg version="1.1" xmlns="http://www.w3.org/2000/svg" xmlns:xlink="http://www.w3.org/1999/xlink" preserveAspectRatio="xMidYMid meet" viewBox="118.99969679384886 118.99999999999956 234.0004724409443 234.00000000000045" width="230" height="230"><defs><path d="M120 230L170 180L120 180L120 230Z" id="h45bFET2I6"></path><path d="M180 180L230 180L230 230L180 230L180 180Z" id="h7kp8FP7pY"></path><path d="M170 240L120 290L170 290L170 240Z" id="f3hBOJCxB7"></path><path d="M120 350L170 300L120 300L120 350Z" id="b3Dmh0VxIl"></path><path d="M180 120L230 120L230 170L180 170L180 120Z" id="f2hbS9AEeL"></path><path d="M240 240L290 290L240 290L240 240Z" id="e2KQKWESHJ"></path><path d="M240 230L290 180L240 180L240 230Z" id="j6lN6ObsPB"></path><path d="M230 290L180 240L230 240L230 290Z" id="b3ilYgpz6"></path><path d="M290 350L240 300L290 300L290 350Z" id="hIo8SfNMy"></path><path d="M300 240L350 240L350 290L300 290L300 240Z" id="e6AvpY9RfF"></path></defs><g><g><use xlink:href="#h45bFET2I6" opacity="1" fill="#0e0000" fill-opacity="1"></use></g><g><use xlink:href="#h7kp8FP7pY" opacity="1" fill="#0e0000" fill-opacity="1"></use></g><g><use xlink:href="#f3hBOJCxB7" opacity="1" fill="#0e0000" fill-opacity="1"></use></g><g><use xlink:href="#b3Dmh0VxIl" opacity="1" fill="#0e0000" fill-opacity="1"></use></g><g><use xlink:href="#f2hbS9AEeL" opacity="1" fill="#0e0000" fill-opacity="1"></use></g><g><use xlink:href="#e2KQKWESHJ" opacity="1" fill="#0e0000" fill-opacity="1"></use></g><g><use xlink:href="#j6lN6ObsPB" opacity="1" fill="#0e0000" fill-opacity="1"></use></g><g><use xlink:href="#b3ilYgpz6" opacity="1" fill="#0e0000" fill-opacity="1"></use></g><g><use xlink:href="#hIo8SfNMy" opacity="1" fill="#0e0000" fill-opacity="1"></use></g><g><use xlink:href="#e6AvpY9RfF" opacity="1" fill="#0e0000" fill-opacity="1"></use></g></g></svg>