<?xml version="1.0" encoding="UTF-8" standalone="no"?>
<!DOCTYPE svg PUBLIC "-//W3C//DTD SVG 1.1//EN" "http://www.w3.org/Graphics/SVG/1.1/DTD/svg11.dtd">
<svg version="1.1" xmlns="http://www.w3.org/2000/svg" xmlns:xlink="http://www.w3.org/1999/xlink" preserveAspectRatio="xMidYMid meet" viewBox="180.70508967777317 192.42736352432456 122.77644634722668 191.80576403166964" width="300" height="300"><defs><path d="M229.3 294L241 301.63L193.4 374.59L181.71 366.95L229.3 294Z" id="bIQh4sVNj"></path><path d="M260.86 294L273.27 300.43L248.21 348.78L235.81 342.35L260.86 294Z" id="e2OPDGxob8"></path><path d="M226.16 350.23L257.16 350.23L257.16 381.23L226.16 381.23L226.16 350.23Z" id="b2yke3pB89"></path><path d="M228.04 233.03L275.04 233.03L275.04 292.03L228.04 292.03L228.04 233.03Z" id="cCTcN8BYu"></path><path d="M214.46 243.8L226.16 251.44L196.4 297.05L184.71 289.42L214.46 243.8Z" id="c5s8hgTmqC"></path><path d="M277.14 246.39L290.89 243.93L300.48 297.54L286.73 300L277.14 246.39Z" id="b1zzxmwwXS"></path><path d="M238.81 193.43L269.81 193.43L269.81 224.43L238.81 224.43L238.81 193.43Z" id="a7UZqWBxw"></path></defs><g><g><use xlink:href="#bIQh4sVNj" opacity="1" fill="#73d065" fill-opacity="1"></use></g><g><use xlink:href="#e2OPDGxob8" opacity="1" fill="#73d065" fill-opacity="1"></use></g><g><use xlink:href="#b2yke3pB89" opacity="1" fill="#000000" fill-opacity="1"></use></g><g><use xlink:href="#cCTcN8BYu" opacity="1" fill="#73d065" fill-opacity="1"></use></g><g><use xlink:href="#c5s8hgTmqC" opacity="1" fill="#73d065" fill-opacity="1"></use></g><g><use xlink:href="#b1zzxmwwXS" opacity="1" fill="#73d065" fill-opacity="1"></use></g><g><use xlink:href="#a7UZqWBxw" opacity="1" fill="#73d065" fill-opacity="1"></use></g></g></svg>