<?xml version="1.0" encoding="UTF-8" standalone="no"?>
<!DOCTYPE svg PUBLIC "-//W3C//DTD SVG 1.1//EN" "http://www.w3.org/Graphics/SVG/1.1/DTD/svg11.dtd">
<svg version="1.1" xmlns="http://www.w3.org/2000/svg" xmlns:xlink="http://www.w3.org/1999/xlink" preserveAspectRatio="xMidYMid meet" viewBox="175.0041446673283 150.00138155577622 150.000655737705 129.9975409836066" width="150" height="130"><defs><path d="M205 165C205 173.28 198.28 180 190 180C181.73 180 175 173.28 175 165C175 156.72 181.73 150 190 150C198.28 150 205 156.72 205 165Z" id="b1r3hgNxz8"></path><path d="M325 165C325 173.28 318.28 180 310 180C301.73 180 295 173.28 295 165C295 156.72 301.73 150 310 150C318.28 150 325 156.72 325 165Z" id="b1l3xvkxnI"></path><path d="M190 150L310 150L310 180L190 180L190 150Z" id="g2uEyURYue"></path><path d="M205 215C205 223.28 198.28 230 190 230C181.73 230 175 223.28 175 215C175 206.72 181.73 200 190 200C198.28 200 205 206.72 205 215Z" id="bkWAi2gkR"></path><path d="M325 215C325 223.28 318.28 230 310 230C301.73 230 295 223.28 295 215C295 206.72 301.73 200 310 200C318.28 200 325 206.72 325 215Z" id="a2lWklyj0v"></path><path d="M190 200L310 200L310 230L190 230L190 200Z" id="bscoTEgx6"></path><path d="M205 265C205 273.28 198.28 280 190 280C181.73 280 175 273.28 175 265C175 256.72 181.73 250 190 250C198.28 250 205 256.72 205 265Z" id="bZz9hIZ1m"></path><path d="M325 265C325 273.28 318.28 280 310 280C301.73 280 295 273.28 295 265C295 256.72 301.73 250 310 250C318.28 250 325 256.72 325 265Z" id="h15ljbGI1f"></path><path d="M190 250L310 250L310 280L190 280L190 250Z" id="bh8FtDDba"></path></defs><g><g><g><use xlink:href="#b1r3hgNxz8" opacity="1" fill="#ffffff" fill-opacity="1"></use></g><g><use xlink:href="#b1l3xvkxnI" opacity="1" fill="#ffffff" fill-opacity="1"></use></g><g><use xlink:href="#g2uEyURYue" opacity="1" fill="#ffffff" fill-opacity="1"></use></g></g><g><g><use xlink:href="#bkWAi2gkR" opacity="1" fill="#ffffff" fill-opacity="1"></use></g><g><use xlink:href="#a2lWklyj0v" opacity="1" fill="#ffffff" fill-opacity="1"></use></g><g><use xlink:href="#bscoTEgx6" opacity="1" fill="#ffffff" fill-opacity="1"></use></g></g><g><g><use xlink:href="#bZz9hIZ1m" opacity="1" fill="#ffffff" fill-opacity="1"></use></g><g><use xlink:href="#h15ljbGI1f" opacity="1" fill="#ffffff" fill-opacity="1"></use></g><g><use xlink:href="#bh8FtDDba" opacity="1" fill="#ffffff" fill-opacity="1"></use></g></g></g></svg>